# xmcd
#
# Track frame offsets: 
#        150
#        14335
#        26964
#        39282
#        50036
#        62107
#        74346
#        87345
#        99512
#        112404
#        126454
#        140688
#
# Disc length: 2015 seconds
#
# Revision: 0
# Processed by: cddbd v1.5.2PL0 Copyright (c) Steve Scherf et al.
# Submitted via: ExactAudioCopyFreeDBPlugin 1.0
#
DISCID=b807dd0c
DTITLE=Otis Rush and Jimmy Reed - Blues Legends - Back To Back Vol. Thre
DTITLE=e
DYEAR=2015
DGENRE=Blues
TTITLE0=Otis Rush - I Can't Quit You
TTITLE1=Jimmy Reed - Big Boss Man
TTITLE2=Otis Rush - Double Trouble
TTITLE3=Jimmy Reed - Baby What You Want Me To Do
TTITLE4=Otis Rush - All Your Love
TTITLE5=Jimmy Reed - Honest I Do
TTITLE6=Otis Rush - Three Times A Fool
TTITLE7=Jimmy Reed - Bright Lights, Big City
TTITLE8=Otis Rush - It Takes Time
TTITLE9=Jimmy Reed - You Don't Have To Go
TTITLE10=Otis Rush - My Love Will Never Die
TTITLE11=Jimmy Reed - Ain't That Lovin' You Baby
EXTD=
EXTT0=
EXTT1=
EXTT2=
EXTT3=
EXTT4=
EXTT5=
EXTT6=
EXTT7=
EXTT8=
EXTT9=
EXTT10=
EXTT11=
PLAYORDER=
